<svg width="53" height="53" viewBox="0 0 53 53" fill="none" xmlns="http://www.w3.org/2000/svg">
<g id="Car">
<path id="Vector" opacity="0.2" d="M37.8359 37.5054H45.9609V42.3804C45.9609 42.8113 45.7897 43.2247 45.485 43.5294C45.1802 43.8342 44.7669 44.0054 44.3359 44.0054H39.4609C39.03 44.0054 38.6166 43.8342 38.3119 43.5294C38.0071 43.2247 37.8359 42.8113 37.8359 42.3804V37.5054ZM6.96094 42.3804C6.96094 42.8113 7.13214 43.2247 7.43689 43.5294C7.74164 43.8342 8.15496 44.0054 8.58594 44.0054H13.4609C13.8919 44.0054 14.3052 43.8342 14.61 43.5294C14.9147 43.2247 15.0859 42.8113 15.0859 42.3804V37.5054H6.96094V42.3804ZM39.8895 10.8452C39.7618 10.558 39.5536 10.314 39.2901 10.1428C39.0265 9.97152 38.719 9.88037 38.4047 9.88037H14.5172C14.2029 9.88037 13.8953 9.97152 13.6318 10.1428C13.3683 10.314 13.16 10.558 13.0323 10.8452L6.96094 24.5054H45.9609L39.8895 10.8452Z" fill="#064E3B"/>
<path id="Vector_2" d="M49.2109 22.8804H47.0172L41.3744 10.1851C41.119 9.61068 40.7026 9.12267 40.1755 8.78017C39.6484 8.43768 39.0333 8.25538 38.4047 8.25537H14.5172C13.8886 8.25538 13.2735 8.43768 12.7464 8.78017C12.2193 9.12267 11.8029 9.61068 11.5475 10.1851L5.90469 22.8804H3.71094C3.27996 22.8804 2.86664 23.0516 2.56189 23.3563C2.25714 23.6611 2.08594 24.0744 2.08594 24.5054C2.08594 24.9363 2.25714 25.3497 2.56189 25.6544C2.86664 25.9592 3.27996 26.1304 3.71094 26.1304H5.33594V42.3804C5.33594 43.2423 5.67835 44.069 6.28784 44.6785C6.89733 45.288 7.72398 45.6304 8.58594 45.6304H13.4609C14.3229 45.6304 15.1495 45.288 15.759 44.6785C16.3685 44.069 16.7109 43.2423 16.7109 42.3804V39.1304H36.2109V42.3804C36.2109 43.2423 36.5533 44.069 37.1628 44.6785C37.7723 45.288 38.599 45.6304 39.4609 45.6304H44.3359C45.1979 45.6304 46.0245 45.288 46.634 44.6785C47.2435 44.069 47.5859 43.2423 47.5859 42.3804V26.1304H49.2109C49.6419 26.1304 50.0552 25.9592 50.36 25.6544C50.6647 25.3497 50.8359 24.9363 50.8359 24.5054C50.8359 24.0744 50.6647 23.6611 50.36 23.3563C50.0552 23.0516 49.6419 22.8804 49.2109 22.8804ZM14.5172 11.5054H38.4047L43.4605 22.8804H9.46141L14.5172 11.5054ZM13.4609 42.3804H8.58594V39.1304H13.4609V42.3804ZM39.4609 42.3804V39.1304H44.3359V42.3804H39.4609ZM44.3359 35.8804H8.58594V26.1304H44.3359V35.8804ZM11.8359 31.0054C11.8359 30.5744 12.0071 30.1611 12.3119 29.8563C12.6166 29.5516 13.03 29.3804 13.4609 29.3804H16.7109C17.1419 29.3804 17.5552 29.5516 17.86 29.8563C18.1647 30.1611 18.3359 30.5744 18.3359 31.0054C18.3359 31.4363 18.1647 31.8497 17.86 32.1544C17.5552 32.4592 17.1419 32.6304 16.7109 32.6304H13.4609C13.03 32.6304 12.6166 32.4592 12.3119 32.1544C12.0071 31.8497 11.8359 31.4363 11.8359 31.0054ZM34.5859 31.0054C34.5859 30.5744 34.7571 30.1611 35.0619 29.8563C35.3666 29.5516 35.78 29.3804 36.2109 29.3804H39.4609C39.8919 29.3804 40.3052 29.5516 40.61 29.8563C40.9147 30.1611 41.0859 30.5744 41.0859 31.0054C41.0859 31.4363 40.9147 31.8497 40.61 32.1544C40.3052 32.4592 39.8919 32.6304 39.4609 32.6304H36.2109C35.78 32.6304 35.3666 32.4592 35.0619 32.1544C34.7571 31.8497 34.5859 31.4363 34.5859 31.0054Z" fill="#064E3B"/>
</g>
</svg>
