<svg width="53" height="53" viewBox="0 0 53 53" fill="none" xmlns="http://www.w3.org/2000/svg">
<g id="CodesandboxLogo">
<path id="Vector" opacity="0.2" d="M7.0293 25.952L16.7793 31.2881V42.4274L7.8743 37.5524C7.61906 37.4128 7.406 37.2072 7.25736 36.9571C7.10872 36.7069 7.02996 36.4215 7.0293 36.1306V25.952ZM36.2793 31.2881V42.4274L45.1843 37.5524C45.4395 37.4128 45.6526 37.2072 45.8012 36.9571C45.9499 36.7069 46.0286 36.4215 46.0293 36.1306V25.954L36.2793 31.2881ZM25.7493 5.49119L17.4212 10.0534L26.5293 15.0381L35.6415 10.0493L27.3093 5.49119C27.0701 5.36033 26.8019 5.29175 26.5293 5.29175C26.2567 5.29175 25.9885 5.36033 25.7493 5.49119Z" fill="#064E3B"/>
<path id="Vector_2" d="M45.9643 13.8498L28.0893 4.06929C27.6113 3.80649 27.0747 3.6687 26.5293 3.6687C25.9839 3.6687 25.4473 3.80649 24.9693 4.06929L7.0943 13.8559C6.58382 14.1352 6.15769 14.5464 5.86042 15.0466C5.56314 15.5468 5.40562 16.1177 5.4043 16.6996V36.1265C5.40562 36.7084 5.56314 37.2792 5.86042 37.7795C6.15769 38.2797 6.58382 38.6909 7.0943 38.9702L24.9693 48.7548C25.4469 49.0187 25.9836 49.1571 26.5293 49.1571C27.075 49.1571 27.6117 49.0187 28.0893 48.7548L45.9643 38.9702C46.4748 38.6909 46.9009 38.2797 47.1982 37.7795C47.4955 37.2792 47.653 36.7084 47.6543 36.1265V16.6996C47.6541 16.1167 47.4971 15.5445 47.1997 15.0432C46.9024 14.5418 46.4757 14.1296 45.9643 13.8498ZM34.6543 31.288V41.4626L28.1543 45.0213V27.3759L44.4043 18.479V24.979L35.4993 29.854C35.2422 29.9946 35.028 30.2022 34.8792 30.4546C34.7305 30.7071 34.6528 30.995 34.6543 31.288ZM17.5593 29.8662L8.6543 24.9912V18.4912L24.9043 27.388V45.0335L18.4043 41.4626V31.288C18.4036 30.9971 18.3249 30.7117 18.1762 30.4616C18.0276 30.2114 17.8145 30.0058 17.5593 29.8662ZM17.4171 11.9079L25.7452 16.468C25.9844 16.5989 26.2526 16.6675 26.5252 16.6675C26.7978 16.6675 27.0661 16.5989 27.3052 16.468L35.6334 11.9079L42.6371 15.7409L26.5293 24.5605L10.4134 15.7368L17.4171 11.9079ZM26.5293 6.91304L32.2574 10.0493L26.5293 13.1876L20.8012 10.0513L26.5293 6.91304ZM8.6543 28.6921L15.1543 32.2509V39.6832L8.6543 36.1265V28.6921ZM37.9043 39.6832V32.2509L44.4043 28.6921V36.1265L37.9043 39.6832Z" fill="#064E3B"/>
</g>
</svg>
