<svg width="53" height="53" viewBox="0 0 53 53" fill="none" xmlns="http://www.w3.org/2000/svg">
<g id="Devices">
<path id="Vector" opacity="0.2" d="M41.4453 13.1349V16.3849H36.5703C35.7084 16.3849 34.8817 16.7273 34.2722 17.3368C33.6627 17.9463 33.3203 18.7729 33.3203 19.6349V35.8849H8.94531C8.08336 35.8849 7.25671 35.5425 6.64722 34.933C6.03772 34.3235 5.69531 33.4968 5.69531 32.6349V13.1349C5.69531 12.2729 6.03772 11.4463 6.64722 10.8368C7.25671 10.2273 8.08336 9.88489 8.94531 9.88489H38.1953C39.0573 9.88489 39.8839 10.2273 40.4934 10.8368C41.1029 11.4463 41.4453 12.2729 41.4453 13.1349Z" fill="#064E3B"/>
<path id="Vector_2" d="M46.3203 14.7599H43.0703V13.1349C43.0703 11.842 42.5567 10.602 41.6425 9.68774C40.7282 8.7735 39.4882 8.25989 38.1953 8.25989H8.94531C7.65238 8.25989 6.41241 8.7735 5.49817 9.68774C4.58393 10.602 4.07031 11.842 4.07031 13.1349V32.6349C4.07031 33.9278 4.58393 35.1678 5.49817 36.082C6.41241 36.9963 7.65238 37.5099 8.94531 37.5099H31.6953V39.1349C31.6953 40.4278 32.2089 41.6678 33.1232 42.582C34.0374 43.4963 35.2774 44.0099 36.5703 44.0099H46.3203C47.6132 44.0099 48.8532 43.4963 49.7675 42.582C50.6817 41.6678 51.1953 40.4278 51.1953 39.1349V19.6349C51.1953 18.342 50.6817 17.102 49.7675 16.1877C48.8532 15.2735 47.6132 14.7599 46.3203 14.7599ZM8.94531 34.2599C8.51434 34.2599 8.10101 34.0887 7.79626 33.7839C7.49152 33.4792 7.32031 33.0659 7.32031 32.6349V13.1349C7.32031 12.7039 7.49152 12.2906 7.79626 11.9858C8.10101 11.6811 8.51434 11.5099 8.94531 11.5099H38.1953C38.6263 11.5099 39.0396 11.6811 39.3444 11.9858C39.6491 12.2906 39.8203 12.7039 39.8203 13.1349V14.7599H36.5703C35.2774 14.7599 34.0374 15.2735 33.1232 16.1877C32.2089 17.102 31.6953 18.342 31.6953 19.6349V34.2599H8.94531ZM47.9453 39.1349C47.9453 39.5659 47.7741 39.9792 47.4694 40.2839C47.1646 40.5887 46.7513 40.7599 46.3203 40.7599H36.5703C36.1393 40.7599 35.726 40.5887 35.4213 40.2839C35.1165 39.9792 34.9453 39.5659 34.9453 39.1349V19.6349C34.9453 19.2039 35.1165 18.7906 35.4213 18.4858C35.726 18.1811 36.1393 18.0099 36.5703 18.0099H46.3203C46.7513 18.0099 47.1646 18.1811 47.4694 18.4858C47.7741 18.7906 47.9453 19.2039 47.9453 19.6349V39.1349ZM28.4453 42.3849C28.4453 42.8159 28.2741 43.2292 27.9694 43.5339C27.6646 43.8387 27.2513 44.0099 26.8203 44.0099H18.6953C18.2643 44.0099 17.851 43.8387 17.5463 43.5339C17.2415 43.2292 17.0703 42.8159 17.0703 42.3849C17.0703 41.9539 17.2415 41.5406 17.5463 41.2358C17.851 40.9311 18.2643 40.7599 18.6953 40.7599H26.8203C27.2513 40.7599 27.6646 40.9311 27.9694 41.2358C28.2741 41.5406 28.4453 41.9539 28.4453 42.3849ZM44.6953 22.8849C44.6953 23.3159 44.5241 23.7292 44.2194 24.0339C43.9146 24.3387 43.5013 24.5099 43.0703 24.5099H39.8203C39.3893 24.5099 38.976 24.3387 38.6713 24.0339C38.3665 23.7292 38.1953 23.3159 38.1953 22.8849C38.1953 22.4539 38.3665 22.0406 38.6713 21.7358C38.976 21.4311 39.3893 21.2599 39.8203 21.2599H43.0703C43.5013 21.2599 43.9146 21.4311 44.2194 21.7358C44.5241 22.0406 44.6953 22.4539 44.6953 22.8849Z" fill="#064E3B"/>
</g>
</svg>
