<svg width="53" height="53" viewBox="0 0 53 53" fill="none" xmlns="http://www.w3.org/2000/svg">
<g id="ForkKnife">
<path id="Vector" opacity="0.2" d="M43.0938 8.18298V34.183H31.7188C31.7188 34.183 31.7188 13.058 43.0938 8.18298Z" fill="#881337"/>
<path id="Vector_2" d="M15.4688 17.933V8.18298C15.4688 7.752 15.64 7.33868 15.9447 7.03393C16.2494 6.72919 16.6628 6.55798 17.0938 6.55798C17.5247 6.55798 17.9381 6.72919 18.2428 7.03393C18.5475 7.33868 18.7188 7.752 18.7188 8.18298V17.933C18.7188 18.364 18.5475 18.7773 18.2428 19.082C17.9381 19.3868 17.5247 19.558 17.0938 19.558C16.6628 19.558 16.2494 19.3868 15.9447 19.082C15.64 18.7773 15.4688 18.364 15.4688 17.933ZM44.7188 8.18298V45.558C44.7188 45.989 44.5475 46.4023 44.2428 46.707C43.9381 47.0118 43.5247 47.183 43.0938 47.183C42.6628 47.183 42.2494 47.0118 41.9447 46.707C41.64 46.4023 41.4688 45.989 41.4688 45.558V35.808H31.7188C31.2878 35.808 30.8744 35.6368 30.5697 35.332C30.265 35.0273 30.0938 34.614 30.0938 34.183C30.1692 30.2905 30.6609 26.4172 31.5603 22.6292C33.5469 14.4047 37.3128 8.89189 42.4539 6.69001C42.701 6.58417 42.9705 6.54127 43.2383 6.56518C43.506 6.58909 43.7637 6.67905 43.9881 6.827C44.2125 6.97495 44.3968 7.17627 44.5243 7.41292C44.6518 7.64957 44.7186 7.91416 44.7188 8.18298ZM41.4688 11.0064C34.9342 15.9972 33.6545 28.1542 33.4047 32.558H41.4688V11.0064ZM25.1964 7.91689C25.1646 7.70351 25.0906 7.49861 24.9787 7.31414C24.8669 7.12966 24.7194 6.9693 24.545 6.84241C24.3705 6.71553 24.1725 6.62465 23.9625 6.57509C23.7526 6.52552 23.5348 6.51826 23.322 6.55373C23.1092 6.58919 22.9056 6.66668 22.7231 6.78166C22.5406 6.89664 22.3827 7.04682 22.2589 7.22343C22.135 7.40005 22.0475 7.59956 22.0015 7.81034C21.9555 8.02112 21.952 8.23894 21.9911 8.45111L23.5938 18.0609C23.5938 19.7849 22.9089 21.4382 21.6899 22.6571C20.471 23.8761 18.8177 24.5609 17.0938 24.5609C15.3698 24.5609 13.7165 23.8761 12.4976 22.6571C11.2786 21.4382 10.5938 19.7849 10.5938 18.0609L12.1944 8.45111C12.2335 8.23894 12.2299 8.02112 12.184 7.81034C12.138 7.59956 12.0505 7.40005 11.9266 7.22343C11.8027 7.04682 11.6449 6.89664 11.4624 6.78166C11.2798 6.66668 11.0762 6.58919 10.8634 6.55373C10.6506 6.51826 10.4329 6.52552 10.2229 6.57509C10.013 6.62465 9.81498 6.71553 9.64051 6.84241C9.46604 6.9693 9.31858 7.12966 9.20673 7.31414C9.09488 7.49861 9.02089 7.70351 8.98906 7.91689L7.36406 17.6669C7.35016 17.7549 7.34337 17.8439 7.34375 17.933C7.347 20.236 8.16421 22.4638 9.65098 24.2227C11.1378 25.9815 13.1984 27.1582 15.4688 27.5449V45.558C15.4688 45.989 15.64 46.4023 15.9447 46.707C16.2494 47.0118 16.6628 47.183 17.0938 47.183C17.5247 47.183 17.9381 47.0118 18.2428 46.707C18.5475 46.4023 18.7188 45.989 18.7188 45.558V27.5449C20.9891 27.1582 23.0497 25.9815 24.5365 24.2227C26.0233 22.4638 26.8405 20.236 26.8438 17.933C26.8435 17.8438 26.836 17.7548 26.8214 17.6669L25.1964 7.91689Z" fill="#881337"/>
</g>
</svg>
