<svg width="53" height="53" viewBox="0 0 53 53" fill="none" xmlns="http://www.w3.org/2000/svg">
<g id="GameController">
<path id="Vector" opacity="0.2" d="M44.5373 42.2327C43.637 42.3916 42.7116 42.3311 41.8397 42.0564C40.9677 41.7816 40.1748 41.3007 39.5282 40.6544L30.9746 30.9451H35.4251C36.9673 30.9467 38.4912 30.6103 39.8894 29.9593C41.2876 29.3084 42.526 28.3588 43.5175 27.1775C44.5091 25.9962 45.2295 24.6119 45.6282 23.1221C46.0269 21.6322 46.0941 20.0731 45.8251 18.5544L49.1482 35.6515C49.408 37.1355 49.0684 38.6619 48.2039 39.8958C47.3395 41.1297 46.0208 41.9701 44.5373 42.2327Z" fill="#881337"/>
<path id="Vector_2" d="M36.2375 22.8201H31.3625C30.9316 22.8201 30.5182 22.6489 30.2135 22.3441C29.9087 22.0394 29.7375 21.626 29.7375 21.1951C29.7375 20.7641 29.9087 20.3508 30.2135 20.046C30.5182 19.7413 30.9316 19.5701 31.3625 19.5701H36.2375C36.6685 19.5701 37.0818 19.7413 37.3866 20.046C37.6913 20.3508 37.8625 20.7641 37.8625 21.1951C37.8625 21.626 37.6913 22.0394 37.3866 22.3441C37.0818 22.6489 36.6685 22.8201 36.2375 22.8201ZM21.6125 19.5701H19.9875V17.9451C19.9875 17.5141 19.8163 17.1008 19.5116 16.796C19.2068 16.4913 18.7935 16.3201 18.3625 16.3201C17.9316 16.3201 17.5182 16.4913 17.2135 16.796C16.9087 17.1008 16.7375 17.5141 16.7375 17.9451V19.5701H15.1125C14.6816 19.5701 14.2682 19.7413 13.9635 20.046C13.6587 20.3508 13.4875 20.7641 13.4875 21.1951C13.4875 21.626 13.6587 22.0394 13.9635 22.3441C14.2682 22.6489 14.6816 22.8201 15.1125 22.8201H16.7375V24.4451C16.7375 24.876 16.9087 25.2894 17.2135 25.5941C17.5182 25.8989 17.9316 26.0701 18.3625 26.0701C18.7935 26.0701 19.2068 25.8989 19.5116 25.5941C19.8163 25.2894 19.9875 24.876 19.9875 24.4451V22.8201H21.6125C22.0435 22.8201 22.4568 22.6489 22.7616 22.3441C23.0663 22.0394 23.2375 21.626 23.2375 21.1951C23.2375 20.7641 23.0663 20.3508 22.7616 20.046C22.4568 19.7413 22.0435 19.5701 21.6125 19.5701ZM49.5382 40.8271C48.9257 41.7016 48.1292 42.4315 47.2046 42.9653C46.28 43.4992 45.2497 43.8241 44.1861 43.9172C43.1225 44.0103 42.0514 43.8694 41.0481 43.5043C40.0448 43.1393 39.1335 42.559 38.3785 41.8041C38.3541 41.7798 38.3297 41.7554 38.3074 41.729L30.2413 32.5701H22.7257L14.6677 41.729L14.5966 41.8041C13.2239 43.1739 11.3642 43.9437 9.42503 43.9451C8.35748 43.9447 7.30297 43.7105 6.33556 43.2591C5.36816 42.8077 4.51132 42.1499 3.82525 41.332C3.13918 40.5141 2.64052 39.5559 2.36428 38.5247C2.08805 37.4935 2.04094 36.4144 2.22628 35.363C2.2253 35.3536 2.2253 35.3441 2.22628 35.3346L5.55144 18.2538C6.04631 15.4366 7.51821 12.8839 9.7085 11.0443C11.8988 9.20472 14.6673 8.19588 17.5277 8.19507H35.425C38.2767 8.19962 41.0368 9.20269 43.226 11.0301C45.4152 12.8576 46.8954 15.394 47.4094 18.199C47.4094 18.2112 47.4094 18.2233 47.4094 18.2355L50.7346 35.3326C50.7355 35.342 50.7355 35.3516 50.7346 35.361C50.9067 36.306 50.8895 37.2757 50.6842 38.214C50.4788 39.1522 50.0893 40.0404 49.5382 40.8271ZM35.425 29.3201C37.7954 29.3201 40.0687 28.3784 41.7448 26.7023C43.4209 25.0262 44.3625 22.7529 44.3625 20.3826C44.3625 18.0122 43.4209 15.7389 41.7448 14.0628C40.0687 12.3867 37.7954 11.4451 35.425 11.4451H17.5277C15.4293 11.447 13.3988 12.1888 11.7934 13.54C10.188 14.8913 9.11058 16.7654 8.75066 18.8327V18.8591L5.42347 35.9399C5.2764 36.7867 5.40169 37.6584 5.78133 38.4295C6.16096 39.2006 6.77538 39.8314 7.5362 40.2312C8.29703 40.631 9.16506 40.7793 10.0154 40.6546C10.8658 40.5299 11.6548 40.1387 12.2688 39.5373L20.7838 29.8705C20.9362 29.6976 21.1238 29.559 21.3339 29.4641C21.544 29.3692 21.772 29.3201 22.0025 29.3201H35.425ZM47.5516 35.9399L45.7763 26.7993C44.6844 28.5624 43.1607 30.0178 41.3493 31.0276C39.538 32.0374 37.4989 32.5683 35.425 32.5701H34.5719L40.7063 39.5393C41.1688 39.9892 41.7314 40.3229 42.3479 40.5133C42.9644 40.7036 43.6172 40.745 44.2528 40.6341C45.3117 40.4472 46.2533 39.8482 46.8712 38.9683C47.4892 38.0884 47.7331 36.9994 47.5496 35.9399H47.5516Z" fill="#881337"/>
</g>
</svg>
