<svg width="53" height="53" viewBox="0 0 53 53" fill="none" xmlns="http://www.w3.org/2000/svg">
<g id="HandSoap">
<path id="Vector" opacity="0.2" d="M43.1719 28.1782V44.4282C43.1719 44.8592 43.0007 45.2725 42.6959 45.5773C42.3912 45.882 41.9779 46.0532 41.5469 46.0532H12.2969C11.8659 46.0532 11.4526 45.882 11.1478 45.5773C10.8431 45.2725 10.6719 44.8592 10.6719 44.4282V28.1782C10.6719 26.4543 11.3567 24.801 12.5757 23.582C13.7947 22.363 15.448 21.6782 17.1719 21.6782H36.6719C38.3958 21.6782 40.0491 22.363 41.2681 23.582C42.4871 24.801 43.1719 26.4543 43.1719 28.1782Z" fill="#1E3A8A"/>
<path id="Vector_2" d="M38.2969 20.2157V18.4282C38.2969 16.7043 37.6121 15.051 36.3931 13.832C35.1741 12.613 33.5208 11.9282 31.7969 11.9282H28.5469V7.05322H35.0469C35.4779 7.05322 35.8912 7.22443 36.1959 7.52917C36.5007 7.83392 36.6719 8.24725 36.6719 8.67822C36.6719 9.1092 36.8431 9.52252 37.1478 9.82727C37.4526 10.132 37.8659 10.3032 38.2969 10.3032C38.7279 10.3032 39.1412 10.132 39.4459 9.82727C39.7507 9.52252 39.9219 9.1092 39.9219 8.67822C39.9219 7.38529 39.4083 6.14532 38.494 5.23108C37.5798 4.31684 36.3398 3.80322 35.0469 3.80322H22.0469C21.6159 3.80322 21.2026 3.97443 20.8978 4.27917C20.5931 4.58392 20.4219 4.99725 20.4219 5.42822C20.4219 5.8592 20.5931 6.27252 20.8978 6.57727C21.2026 6.88202 21.6159 7.05322 22.0469 7.05322H25.2969V11.9282H22.0469C20.323 11.9282 18.6697 12.613 17.4507 13.832C16.2317 15.051 15.5469 16.7043 15.5469 18.4282V20.2157C13.7129 20.5928 12.065 21.5907 10.881 23.0411C9.69692 24.4916 9.04916 26.3059 9.04688 28.1782V44.4282C9.04688 45.2902 9.38928 46.1168 9.99878 46.7263C10.6083 47.3358 11.4349 47.6782 12.2969 47.6782H41.5469C42.4088 47.6782 43.2355 47.3358 43.845 46.7263C44.4545 46.1168 44.7969 45.2902 44.7969 44.4282V28.1782C44.7946 26.3059 44.1468 24.4916 42.9628 23.0411C41.7788 21.5907 40.1309 20.5928 38.2969 20.2157ZM22.0469 15.1782H31.7969C32.6588 15.1782 33.4855 15.5206 34.095 16.1301C34.7045 16.7396 35.0469 17.5663 35.0469 18.4282V20.0532H18.7969V18.4282C18.7969 17.5663 19.1393 16.7396 19.7488 16.1301C20.3583 15.5206 21.1849 15.1782 22.0469 15.1782ZM41.5469 44.4282H12.2969V28.1782C12.2969 26.8853 12.8105 25.6453 13.7247 24.7311C14.639 23.8168 15.8789 23.3032 17.1719 23.3032H36.6719C37.9648 23.3032 39.2048 23.8168 40.119 24.7311C41.0333 25.6453 41.5469 26.8853 41.5469 28.1782V44.4282Z" fill="#1E3A8A"/>
</g>
</svg>
