<svg width="53" height="53" viewBox="0 0 53 53" fill="none" xmlns="http://www.w3.org/2000/svg">
<g id="HighHeel" clip-path="url(#clip0_86_722)">
<path id="Vector" opacity="0.2" d="M51.3633 39.7622V40.7148C51.3633 41.1458 51.1921 41.5591 50.8873 41.8639C50.5826 42.1686 50.1693 42.3398 49.7383 42.3398H31.6033C31.2813 42.3413 30.9662 42.2471 30.6978 42.0692C30.4295 41.8913 30.22 41.6376 30.0961 41.3405C26.4825 32.4436 17.7217 26.0898 7.48828 26.0898C7.48828 19.793 10.0456 14.1502 13.9883 9.83984L36.7383 32.5898L47.5466 35.0273C48.6266 35.2645 49.5934 35.8629 50.2873 36.7238C50.9813 37.5846 51.3608 38.6565 51.3633 39.7622Z" fill="#1E3A8A"/>
<path id="Vector_2" d="M47.9102 33.4409L37.5508 31.109L15.138 8.69013C14.9827 8.53496 14.7977 8.41284 14.5939 8.33115C14.3902 8.24946 14.1721 8.20989 13.9526 8.21483C13.7332 8.21976 13.517 8.2691 13.3172 8.35987C13.1173 8.45063 12.9379 8.58094 12.7898 8.74294C8.32312 13.6261 5.86328 19.7929 5.86328 26.0898V40.7148C5.86328 41.5768 6.20569 42.4034 6.81518 43.0129C7.42468 43.6224 8.25133 43.9648 9.11328 43.9648H15.6133C16.4752 43.9648 17.3019 43.6224 17.9114 43.0129C18.5209 42.4034 18.8633 41.5768 18.8633 40.7148V30.7739C19.3691 31.0684 19.8667 31.3833 20.3542 31.7164C24.0429 34.2479 26.907 37.807 28.5909 41.9518C28.8342 42.5501 29.2513 43.0617 29.7883 43.4205C30.3252 43.7793 30.9575 43.9689 31.6033 43.9648H49.7383C50.6002 43.9648 51.4269 43.6224 52.0364 43.0129C52.6459 42.4034 52.9883 41.5768 52.9883 40.7148V39.754C52.992 38.2795 52.4899 36.8484 51.5657 35.6994C50.6415 34.5505 49.3512 33.7533 47.9102 33.4409ZM15.6133 40.7148H9.11328V27.7737C11.3396 27.9311 13.5302 28.4185 15.6133 29.22V40.7148ZM49.7383 40.7148H31.5952C29.6719 35.9884 26.404 31.9303 22.1966 29.0433C18.3462 26.3814 13.8437 24.8183 9.17219 24.5217C9.53859 20.0255 11.2492 15.7436 14.0817 12.2326L35.5886 33.7395C35.8062 33.9564 36.0809 34.1071 36.3808 34.1742L47.1952 36.6117C47.9163 36.7651 48.5627 37.162 49.0257 37.7357C49.4888 38.3093 49.7404 39.0249 49.7383 39.7622V40.7148Z" fill="#1E3A8A"/>
</g>
<defs>
<clipPath id="clip0_86_722">
<rect width="52" height="52" fill="white" transform="translate(0.988281 0.0898438)"/>
</clipPath>
</defs>
</svg>
