<svg width="52" height="53" viewBox="0 0 52 53" fill="none" xmlns="http://www.w3.org/2000/svg">
<g id="Megaphone">
<path id="Vector" opacity="0.2" d="M47.125 24.875C47.125 27.0299 46.269 29.0965 44.7452 30.6202C43.2215 32.144 41.1549 33 39 33H30.875V16.75H39C41.1549 16.75 43.2215 17.606 44.7452 19.1298C46.269 20.6535 47.125 22.7201 47.125 24.875Z" fill="#171717"/>
<path id="Vector_2" d="M48.75 24.875C48.7473 22.2899 47.7192 19.8115 45.8913 17.9836C44.0634 16.1558 41.585 15.1277 39 15.125H30.9156C30.3245 15.0904 20.0241 14.3653 10.2152 6.13872C9.74148 5.74091 9.16412 5.48653 8.55089 5.40547C7.93766 5.32441 7.31403 5.42004 6.75326 5.68112C6.19249 5.9422 5.71788 6.35789 5.38517 6.87935C5.05246 7.40082 4.87547 8.0064 4.875 8.62497V41.125C4.87508 41.7437 5.05179 42.3496 5.38435 42.8713C5.71691 43.3931 6.1915 43.8091 6.75234 44.0704C7.31318 44.3318 7.93697 44.4276 8.55038 44.3466C9.1638 44.2656 9.74135 44.0112 10.2152 43.6133C17.8872 37.1783 25.8558 35.3339 29.25 34.8179V41.2611C29.2493 41.7966 29.381 42.324 29.6333 42.7964C29.8856 43.2688 30.2508 43.6715 30.6962 43.9687L32.9306 45.4576C33.3625 45.7459 33.8572 45.9265 34.3732 45.9842C34.8892 46.042 35.4115 45.9753 35.8965 45.7898C36.3814 45.6042 36.8148 45.3051 37.1604 44.9176C37.506 44.5301 37.7537 44.0654 37.8828 43.5625L40.2736 34.5518C42.6191 34.2398 44.7716 33.0866 46.3307 31.3066C47.8898 29.5267 48.7495 27.2412 48.75 24.875ZM8.125 41.1108V8.62497C16.8208 15.9192 25.7217 17.7656 29.25 18.2206V31.5212C25.7258 31.9843 16.8269 33.8267 8.125 41.1108ZM34.7344 42.7358V42.7581L32.5 41.2692V34.625H36.8875L34.7344 42.7358ZM39 31.375H32.5V18.375H39C40.7239 18.375 42.3772 19.0598 43.5962 20.2788C44.8152 21.4978 45.5 23.1511 45.5 24.875C45.5 26.5989 44.8152 28.2522 43.5962 29.4712C42.3772 30.6901 40.7239 31.375 39 31.375Z" fill="#1E3A8A"/>
</g>
</svg>
