<svg width="53" height="53" viewBox="0 0 53 53" fill="none" xmlns="http://www.w3.org/2000/svg">
<g id="Notebook">
<path id="Vector" opacity="0.2" d="M16.3262 8.52441V44.2744H9.82617C9.3952 44.2744 8.98187 44.1032 8.67712 43.7985C8.37238 43.4937 8.20117 43.0804 8.20117 42.6494V10.1494C8.20117 9.71844 8.37238 9.30511 8.67712 9.00037C8.98187 8.69562 9.3952 8.52441 9.82617 8.52441H16.3262Z" fill="#881337"/>
<path id="Vector_2" d="M37.4512 23.1494C37.4512 23.5804 37.28 23.9937 36.9752 24.2985C36.6705 24.6032 36.2571 24.7744 35.8262 24.7744H22.8262C22.3952 24.7744 21.9819 24.6032 21.6771 24.2985C21.3724 23.9937 21.2012 23.5804 21.2012 23.1494C21.2012 22.7184 21.3724 22.3051 21.6771 22.0004C21.9819 21.6956 22.3952 21.5244 22.8262 21.5244H35.8262C36.2571 21.5244 36.6705 21.6956 36.9752 22.0004C37.28 22.3051 37.4512 22.7184 37.4512 23.1494ZM35.8262 28.0244H22.8262C22.3952 28.0244 21.9819 28.1956 21.6771 28.5004C21.3724 28.8051 21.2012 29.2184 21.2012 29.6494C21.2012 30.0804 21.3724 30.4937 21.6771 30.7985C21.9819 31.1032 22.3952 31.2744 22.8262 31.2744H35.8262C36.2571 31.2744 36.6705 31.1032 36.9752 30.7985C37.28 30.4937 37.4512 30.0804 37.4512 29.6494C37.4512 29.2184 37.28 28.8051 36.9752 28.5004C36.6705 28.1956 36.2571 28.0244 35.8262 28.0244ZM45.5762 10.1494V42.6494C45.5762 43.5114 45.2338 44.338 44.6243 44.9475C44.0148 45.557 43.1881 45.8994 42.3262 45.8994H9.82617C8.96422 45.8994 8.13757 45.557 7.52807 44.9475C6.91858 44.338 6.57617 43.5114 6.57617 42.6494V10.1494C6.57617 9.28746 6.91858 8.46081 7.52807 7.85132C8.13757 7.24182 8.96422 6.89941 9.82617 6.89941H42.3262C43.1881 6.89941 44.0148 7.24182 44.6243 7.85132C45.2338 8.46081 45.5762 9.28746 45.5762 10.1494ZM9.82617 42.6494H14.7012V10.1494H9.82617V42.6494ZM42.3262 42.6494V10.1494H17.9512V42.6494H42.3262Z" fill="#881337"/>
</g>
</svg>
