<svg width="53" height="53" viewBox="0 0 53 53" fill="none" xmlns="http://www.w3.org/2000/svg">
<g id="Palette">
<path id="Vector" opacity="0.2" d="M46.4512 26.3573C46.4641 27.8728 46.3012 29.3847 45.9657 30.8626C45.7196 31.939 45.1153 32.9 44.2518 33.5882C43.3883 34.2764 42.3168 34.6511 41.2126 34.6509H31.8262C30.5332 34.6509 29.2933 35.1645 28.379 36.0787C27.4648 36.993 26.9512 38.233 26.9512 39.5259C26.9506 40.3055 26.7631 41.0736 26.4043 41.7658C26.0455 42.4579 25.526 43.0539 24.8893 43.5038C24.2526 43.9537 23.5173 44.2443 22.7451 44.3512C21.9728 44.4582 21.1862 44.3784 20.4512 44.1185C12.8807 41.4434 7.45117 35.0185 7.45117 26.5259C7.45089 21.3892 9.47744 16.4598 13.0906 12.8086C16.7037 9.15745 21.6116 7.0794 26.748 7.02589C37.4812 6.91823 46.3598 15.6282 46.4512 26.3573Z" fill="#881337"/>
<path id="Vector_2" d="M41.7326 11.4723C37.7995 7.57755 32.4864 5.39522 26.9512 5.40089H26.7338C21.1689 5.45815 15.8513 7.70906 11.9365 11.6646C8.02168 15.6201 5.82588 20.9606 5.82617 26.5259C5.82617 35.2603 11.2252 42.585 19.9149 45.6542C20.895 45.9997 21.9437 46.1052 22.973 45.9618C24.0023 45.8185 24.9822 45.4304 25.8305 44.8301C26.6789 44.2299 27.3709 43.435 27.8487 42.512C28.3264 41.5891 28.5759 40.5651 28.5762 39.5259C28.5762 38.6639 28.9186 37.8373 29.5281 37.2278C30.1376 36.6183 30.9642 36.2759 31.8262 36.2759H41.2126C42.687 36.283 44.1196 35.7857 45.2724 34.8664C46.4252 33.9471 47.2289 32.6612 47.5501 31.2221C47.9133 29.6229 48.0898 27.987 48.0762 26.3471C48.0555 23.5714 47.4841 20.8273 46.3952 18.2739C45.3063 15.7206 43.7215 13.4087 41.7326 11.4723ZM44.3732 30.5071C44.2118 31.2241 43.8106 31.8644 43.2359 32.3224C42.6612 32.7804 41.9474 33.0286 41.2126 33.0259H31.8262C30.1023 33.0259 28.449 33.7107 27.23 34.9297C26.011 36.1487 25.3262 37.802 25.3262 39.5259C25.3254 40.045 25.2003 40.5564 24.9614 41.0172C24.7224 41.4781 24.3765 41.875 23.9527 42.1747C23.5289 42.4744 23.0394 42.6683 22.5252 42.74C22.0111 42.8117 21.4873 42.7593 20.9976 42.587C13.6445 39.9931 9.07617 33.8384 9.07617 26.5259C9.07592 21.817 10.9338 17.2982 14.2461 13.9513C17.5585 10.6043 22.0577 8.69958 26.7663 8.65089H26.9491C31.658 8.66918 36.1709 10.5375 39.5148 13.8529C42.8587 17.1682 44.7655 21.6651 44.8241 26.3735C44.8362 27.7639 44.6876 29.1509 44.3813 30.5071H44.3732ZM29.3887 15.9634C29.3887 16.4455 29.2457 16.9167 28.9779 17.3176C28.71 17.7184 28.3294 18.0309 27.884 18.2153C27.4386 18.3998 26.9485 18.4481 26.4756 18.3541C26.0028 18.26 25.5685 18.0279 25.2276 17.687C24.8867 17.3461 24.6546 16.9118 24.5605 16.4389C24.4665 15.9661 24.5147 15.476 24.6992 15.0306C24.8837 14.5852 25.1961 14.2045 25.597 13.9367C25.9978 13.6688 26.4691 13.5259 26.9512 13.5259C27.5976 13.5259 28.2176 13.7827 28.6747 14.2398C29.1319 14.6969 29.3887 15.3169 29.3887 15.9634ZM20.4512 20.8384C20.4512 21.3205 20.3082 21.7917 20.0404 22.1926C19.7725 22.5934 19.3919 22.9059 18.9465 23.0903C18.5011 23.2748 18.011 23.3231 17.5381 23.2291C17.0653 23.135 16.631 22.9029 16.2901 22.562C15.9492 22.2211 15.7171 21.7868 15.623 21.3139C15.529 20.8411 15.5772 20.351 15.7617 19.9056C15.9462 19.4602 16.2586 19.0795 16.6595 18.8117C17.0603 18.5438 17.5316 18.4009 18.0137 18.4009C18.6601 18.4009 19.2801 18.6577 19.7372 19.1148C20.1944 19.5719 20.4512 20.1919 20.4512 20.8384ZM20.4512 32.2134C20.4512 32.6955 20.3082 33.1667 20.0404 33.5676C19.7725 33.9684 19.3919 34.2809 18.9465 34.4653C18.5011 34.6498 18.011 34.6981 17.5381 34.6041C17.0653 34.51 16.631 34.2779 16.2901 33.937C15.9492 33.5961 15.7171 33.1618 15.623 32.6889C15.529 32.2161 15.5772 31.726 15.7617 31.2806C15.9462 30.8352 16.2586 30.4545 16.6595 30.1867C17.0603 29.9188 17.5316 29.7759 18.0137 29.7759C18.6601 29.7759 19.2801 30.0327 19.7372 30.4898C20.1944 30.9469 20.4512 31.5669 20.4512 32.2134ZM38.3262 20.8384C38.3262 21.3205 38.1832 21.7917 37.9154 22.1926C37.6475 22.5934 37.2669 22.9059 36.8215 23.0903C36.3761 23.2748 35.886 23.3231 35.4131 23.2291C34.9403 23.135 34.506 22.9029 34.1651 22.562C33.8242 22.2211 33.5921 21.7868 33.498 21.3139C33.404 20.8411 33.4522 20.351 33.6367 19.9056C33.8212 19.4602 34.1336 19.0795 34.5345 18.8117C34.9353 18.5438 35.4066 18.4009 35.8887 18.4009C36.5351 18.4009 37.1551 18.6577 37.6122 19.1148C38.0694 19.5719 38.3262 20.1919 38.3262 20.8384Z" fill="#881337"/>
</g>
</svg>
