<svg width="53" height="53" viewBox="0 0 53 53" fill="none" xmlns="http://www.w3.org/2000/svg">
<g id="PersonSimpleBike">
<path id="Vector" opacity="0.2" d="M47.6484 36.6877C47.6484 37.9733 47.2672 39.23 46.553 40.299C45.8388 41.3679 44.8236 42.201 43.6359 42.693C42.4482 43.1849 41.1412 43.3137 39.8804 43.0628C38.6195 42.812 37.4613 42.193 36.5522 41.2839C35.6432 40.3749 35.0241 39.2167 34.7733 37.9558C34.5225 36.695 34.6513 35.388 35.1432 34.2003C35.6352 33.0126 36.4683 31.9974 37.5372 31.2832C38.6062 30.569 39.8629 30.1877 41.1484 30.1877C42.8723 30.1877 44.5256 30.8726 45.7446 32.0916C46.9636 33.3105 47.6484 34.9638 47.6484 36.6877ZM11.8984 30.1877C10.6129 30.1877 9.35615 30.569 8.28723 31.2832C7.21831 31.9974 6.38519 33.0126 5.89322 34.2003C5.40125 35.388 5.27253 36.695 5.52334 37.9558C5.77414 39.2167 6.3932 40.3749 7.30225 41.2839C8.21129 42.193 9.36948 42.812 10.6304 43.0628C11.8912 43.3137 13.1982 43.1849 14.3859 42.693C15.5736 42.201 16.5888 41.3679 17.303 40.299C18.0172 39.23 18.3984 37.9733 18.3984 36.6877C18.3984 34.9638 17.7136 33.3105 16.4946 32.0916C15.2756 30.8726 13.6223 30.1877 11.8984 30.1877Z" fill="#064E3B"/>
<path id="Vector_2" d="M33.8359 17.1877C34.9608 17.1877 36.0604 16.8542 36.9957 16.2292C37.9311 15.6043 38.66 14.716 39.0905 13.6768C39.521 12.6375 39.6336 11.4939 39.4142 10.3907C39.1947 9.2874 38.653 8.27399 37.8576 7.47858C37.0622 6.68317 36.0488 6.14148 34.9455 5.92203C33.8422 5.70258 32.6987 5.81521 31.6594 6.24568C30.6202 6.67616 29.7319 7.40514 29.107 8.34044C28.482 9.27575 28.1484 10.3754 28.1484 11.5002C28.1484 13.0087 28.7477 14.4553 29.8143 15.5219C30.8809 16.5885 32.3275 17.1877 33.8359 17.1877ZM33.8359 9.06275C34.318 9.06275 34.7893 9.2057 35.1901 9.47354C35.591 9.74138 35.9034 10.1221 36.0879 10.5675C36.2724 11.0129 36.3207 11.503 36.2266 11.9758C36.1326 12.4486 35.9004 12.8829 35.5595 13.2238C35.2186 13.5647 34.7843 13.7969 34.3115 13.8909C33.8386 13.985 33.3485 13.9367 32.9032 13.7522C32.4578 13.5677 32.0771 13.2553 31.8092 12.8544C31.5414 12.4536 31.3984 11.9823 31.3984 11.5002C31.3984 10.8538 31.6552 10.2338 32.1124 9.77667C32.5695 9.31955 33.1895 9.06275 33.8359 9.06275ZM41.1484 28.5627C39.5415 28.5627 37.9706 29.0393 36.6344 29.9321C35.2983 30.8248 34.2569 32.0938 33.6419 33.5784C33.027 35.0631 32.8661 36.6968 33.1796 38.2729C33.4931 39.849 34.2669 41.2967 35.4032 42.433C36.5395 43.5693 37.9872 44.3431 39.5633 44.6566C41.1394 44.9701 42.7731 44.8092 44.2577 44.1943C45.7424 43.5793 47.0113 42.5379 47.9041 41.2018C48.7969 39.8656 49.2734 38.2947 49.2734 36.6877C49.2734 34.5329 48.4174 32.4662 46.8937 30.9425C45.3699 29.4188 43.3033 28.5627 41.1484 28.5627ZM41.1484 41.5627C40.1843 41.5627 39.2417 41.2768 38.44 40.7412C37.6383 40.2055 37.0135 39.4441 36.6445 38.5533C36.2756 37.6625 36.179 36.6823 36.3671 35.7367C36.5552 34.791 37.0195 33.9224 37.7013 33.2406C38.3831 32.5588 39.2517 32.0945 40.1974 31.9064C41.143 31.7183 42.1232 31.8149 43.014 32.1838C43.9048 32.5528 44.6662 33.1777 45.2019 33.9793C45.7375 34.781 46.0234 35.7236 46.0234 36.6877C46.0234 37.9807 45.5098 39.2207 44.5956 40.1349C43.6813 41.0491 42.4414 41.5627 41.1484 41.5627ZM11.8984 28.5627C10.2915 28.5627 8.72058 29.0393 7.38443 29.9321C6.04828 30.8248 5.00688 32.0938 4.39192 33.5784C3.77696 35.0631 3.61606 36.6968 3.92956 38.2729C4.24307 39.849 5.0169 41.2967 6.1532 42.433C7.2895 43.5693 8.73724 44.3431 10.3133 44.6566C11.8894 44.9701 13.5231 44.8092 15.0077 44.1943C16.4924 43.5793 17.7613 42.5379 18.6541 41.2018C19.5469 39.8656 20.0234 38.2947 20.0234 36.6877C20.0234 35.6208 19.8133 34.5642 19.405 33.5784C18.9966 32.5927 18.3982 31.697 17.6437 30.9425C16.8892 30.188 15.9935 29.5895 15.0077 29.1812C14.022 28.7729 12.9654 28.5627 11.8984 28.5627ZM11.8984 41.5627C10.9343 41.5627 9.99173 41.2768 9.19004 40.7412C8.38835 40.2055 7.76351 39.4441 7.39453 38.5533C7.02555 37.6625 6.92901 36.6823 7.11711 35.7367C7.30522 34.791 7.76951 33.9224 8.4513 33.2406C9.13308 32.5588 10.0017 32.0945 10.9474 31.9064C11.893 31.7183 12.8732 31.8149 13.764 32.1838C14.6548 32.5528 15.4162 33.1777 15.9519 33.9793C16.4875 34.781 16.7734 35.7236 16.7734 36.6877C16.7734 37.9807 16.2598 39.2207 15.3456 40.1349C14.4313 41.0491 13.1914 41.5627 11.8984 41.5627ZM39.5234 25.3127H31.3984C31.185 25.3129 30.9736 25.271 30.7763 25.1895C30.579 25.1079 30.3998 24.9883 30.2488 24.8374L24.8984 19.4851L20.6958 23.6877L27.6731 30.6631C27.824 30.8141 27.9436 30.9933 28.0252 31.1906C28.1067 31.3879 28.1486 31.5993 28.1484 31.8127V41.5627C28.1484 41.9937 27.9772 42.4071 27.6725 42.7118C27.3677 43.0165 26.9544 43.1877 26.5234 43.1877C26.0925 43.1877 25.6791 43.0165 25.3744 42.7118C25.0696 42.4071 24.8984 41.9937 24.8984 41.5627V32.4851L17.2488 24.8374C17.0977 24.6865 16.9778 24.5073 16.896 24.31C16.8143 24.1128 16.7722 23.9013 16.7722 23.6877C16.7722 23.4742 16.8143 23.2627 16.896 23.0655C16.9778 22.8682 17.0977 22.689 17.2488 22.5381L23.7488 16.0381C23.8997 15.887 24.0789 15.7671 24.2762 15.6853C24.4734 15.6036 24.6849 15.5615 24.8984 15.5615C25.112 15.5615 25.3234 15.6036 25.5207 15.6853C25.718 15.7671 25.8972 15.887 26.0481 16.0381L32.0708 22.0627H39.5234C39.9544 22.0627 40.3677 22.234 40.6725 22.5387C40.9772 22.8434 41.1484 23.2568 41.1484 23.6877C41.1484 24.1187 40.9772 24.532 40.6725 24.8368C40.3677 25.1415 39.9544 25.3127 39.5234 25.3127Z" fill="#064E3B"/>
</g>
</svg>
