<svg width="53" height="53" viewBox="0 0 53 53" fill="none" xmlns="http://www.w3.org/2000/svg">
<g id="Sunglasses">
<path id="Vector" opacity="0.2" d="M7.16992 27.9451H21.7949V33.6326C21.7949 35.572 21.0245 37.4319 19.6531 38.8033C18.2818 40.1746 16.4218 40.9451 14.4824 40.9451C12.543 40.9451 10.6831 40.1746 9.3117 38.8033C7.94034 37.4319 7.16992 35.572 7.16992 33.6326V27.9451ZM31.5449 27.9451V33.6326C31.5449 35.572 32.3153 37.4319 33.6867 38.8033C35.0581 40.1746 36.918 40.9451 38.8574 40.9451C40.7968 40.9451 42.6568 40.1746 44.0281 38.8033C45.3995 37.4319 46.1699 35.572 46.1699 33.6326V27.9451H31.5449Z" fill="#1E3A8A"/>
<path id="Vector_2" d="M41.2949 8.44507C40.8639 8.44507 40.4506 8.61627 40.1459 8.92102C39.8411 9.22577 39.6699 9.63909 39.6699 10.0701C39.6699 10.501 39.8411 10.9144 40.1459 11.2191C40.4506 11.5239 40.8639 11.6951 41.2949 11.6951C42.1569 11.6951 42.9835 12.0375 43.593 12.647C44.2025 13.2565 44.5449 14.0831 44.5449 14.9451V26.3201H8.79492V14.9451C8.79492 14.0831 9.13733 13.2565 9.74682 12.647C10.3563 12.0375 11.183 11.6951 12.0449 11.6951C12.4759 11.6951 12.8892 11.5239 13.194 11.2191C13.4987 10.9144 13.6699 10.501 13.6699 10.0701C13.6699 9.63909 13.4987 9.22577 13.194 8.92102C12.8892 8.61627 12.4759 8.44507 12.0449 8.44507C10.321 8.44507 8.66771 9.12989 7.44873 10.3489C6.22974 11.5679 5.54492 13.2212 5.54492 14.9451V33.6326C5.54492 36.0029 6.48655 38.2762 8.16266 39.9523C9.83876 41.6284 12.112 42.5701 14.4824 42.5701C16.8528 42.5701 19.1261 41.6284 20.8022 39.9523C22.4783 38.2762 23.4199 36.0029 23.4199 33.6326V29.5701H29.9199V33.6326C29.9199 36.0029 30.8615 38.2762 32.5377 39.9523C34.2138 41.6284 36.487 42.5701 38.8574 42.5701C41.2278 42.5701 43.5011 41.6284 45.1772 39.9523C46.8533 38.2762 47.7949 36.0029 47.7949 33.6326V14.9451C47.7949 13.2212 47.1101 11.5679 45.8911 10.3489C44.6721 9.12989 43.0188 8.44507 41.2949 8.44507ZM43.8604 36.3362L37.0923 29.5701H44.5449V33.6326C44.5464 34.5768 44.311 35.5064 43.8604 36.3362ZM8.79492 33.6326V30.2424L17.186 38.6355C16.3197 39.1036 15.3467 39.3388 14.3622 39.3179C13.3778 39.2971 12.4156 39.0211 11.5698 38.5168C10.724 38.0126 10.0237 37.2973 9.53727 36.4412C9.05086 35.585 8.79507 34.6173 8.79492 33.6326ZM20.1699 33.6326C20.1714 34.5768 19.936 35.5064 19.4854 36.3362L12.7173 29.5701H20.1699V33.6326ZM33.1699 33.6326V30.2424L41.561 38.6355C40.6947 39.1036 39.7217 39.3388 38.7372 39.3179C37.7528 39.2971 36.7906 39.0211 35.9448 38.5168C35.099 38.0126 34.3987 37.2973 33.9123 36.4412C33.4259 35.585 33.1701 34.6173 33.1699 33.6326Z" fill="#1E3A8A"/>
</g>
</svg>
