<svg width="24" height="24" viewBox="0 0 24 24" fill="none" xmlns="http://www.w3.org/2000/svg">
<g id="TwitterLogo">
<path id="Vector" d="M23.1921 6.46302C23.1353 6.32596 23.0392 6.20881 22.9159 6.12637C22.7926 6.04394 22.6476 5.99992 22.4993 5.99989H19.6465C19.2476 5.32131 18.6799 4.75747 17.9987 4.36321C17.3174 3.96894 16.5457 3.75765 15.7586 3.74989C15.1723 3.7422 14.5902 3.85187 14.0469 4.07244C13.5035 4.29301 13.0097 4.62003 12.5946 5.03427C12.1673 5.45354 11.8282 5.954 11.5972 6.50622C11.3662 7.05845 11.2479 7.65129 11.2493 8.24989V8.82083C7.47489 7.8252 4.3877 4.75489 4.35489 4.72208C4.25427 4.62057 4.12674 4.54992 3.98731 4.51846C3.84789 4.487 3.70238 4.49603 3.56792 4.5445C3.43345 4.59296 3.31564 4.67884 3.22835 4.79202C3.14106 4.9052 3.08792 5.04096 3.0752 5.18333C2.67114 9.66364 3.97239 12.6618 5.1377 14.3877C5.7059 15.2409 6.39713 16.0054 7.18895 16.6565C5.76114 18.2999 3.51302 19.1633 3.48864 19.1727C3.38281 19.2123 3.28731 19.2754 3.20926 19.3571C3.13122 19.4389 3.07266 19.5372 3.03795 19.6447C3.00324 19.7523 2.99329 19.8663 3.00883 19.9782C3.02437 20.0901 3.06501 20.1971 3.1277 20.2911C3.19802 20.3961 3.47927 20.7646 4.16645 21.1086C5.01583 21.5343 6.13802 21.7499 7.49927 21.7499C14.1246 21.7499 19.6605 16.648 20.2258 10.0836L23.0299 7.28052C23.1347 7.17557 23.2061 7.04188 23.235 6.89637C23.2639 6.75085 23.2489 6.60004 23.1921 6.46302ZM18.9733 9.2202C18.8447 9.3491 18.7674 9.52038 18.7558 9.70208C18.3743 15.6168 13.4318 20.2499 7.49927 20.2499C6.50927 20.2499 5.81177 20.1186 5.32239 19.9611C6.40145 19.3752 7.90614 18.3674 8.87364 16.9161C8.93043 16.8308 8.96912 16.7347 8.98732 16.6339C9.00553 16.533 9.00287 16.4295 8.9795 16.3297C8.95613 16.2299 8.91255 16.1359 8.85145 16.0536C8.79035 15.9713 8.71303 15.9024 8.62427 15.8511C8.5802 15.8258 4.5077 13.3818 4.49927 6.85114C5.99927 8.06989 8.74145 9.96083 11.8746 10.4877C11.982 10.5058 12.092 10.5003 12.197 10.4716C12.3021 10.4429 12.3996 10.3916 12.4828 10.3214C12.5661 10.2512 12.633 10.1637 12.679 10.065C12.725 9.96632 12.749 9.85879 12.7493 9.74989V8.24989C12.7484 7.84981 12.8276 7.45361 12.9822 7.08459C13.1367 6.71557 13.3636 6.3812 13.6493 6.10114C13.9232 5.82673 14.2493 5.61002 14.6084 5.46381C14.9675 5.3176 15.3522 5.24486 15.7399 5.24989C16.9268 5.26489 18.0358 5.98864 18.4999 7.05083C18.5584 7.18437 18.6545 7.29797 18.7766 7.37772C18.8986 7.45748 19.0413 7.49993 19.1871 7.49989H20.6871L18.9733 9.2202Z" fill="white"/>
</g>
</svg>
